<svg width="24" height="25" viewBox="0 0 24 25" fill="none" xmlns="http://www.w3.org/2000/svg">
<path d="M17.2049 5.66992V18.7299L13.0949 16.0499L12.0049 15.3399L10.9149 16.0499L6.80493 18.7299V5.66992H17.2049ZM18.3049 3.66992H5.70493C5.20493 3.66992 4.80493 4.08992 4.80493 4.60992V20.7299C4.80493 21.2799 5.23493 21.6699 5.70493 21.6699C5.86493 21.6699 6.02493 21.6199 6.18493 21.5299L12.0049 17.7399L17.8249 21.5299C17.9749 21.6299 18.1449 21.6699 18.2949 21.6699C18.7649 21.6699 19.1949 21.2799 19.1949 20.7299V4.60992C19.1949 4.08992 18.7949 3.66992 18.2949 3.66992H18.3049Z" fill="#222222"/>
</svg>
