<svg width="20" height="21" viewBox="0 0 20 21" fill="none" xmlns="http://www.w3.org/2000/svg">
<path fill-rule="evenodd" clip-rule="evenodd" d="M2.5 4.94914C2.5 4.03057 3.2481 3.28247 4.16667 3.28247H15.8333C16.7519 3.28247 17.5 4.03057 17.5 4.94914V13.2825C17.5 14.201 16.7519 14.9491 15.8333 14.9491H9.76346C9.32675 15.9701 8.5393 16.6598 7.76097 17.116C6.83791 17.657 5.86225 17.911 5.29829 18.0309L5.28844 18.033C4.26554 18.2376 3.71673 17.0047 4.39696 16.3402C4.62925 16.1008 4.80615 15.6208 4.90665 15.0562C4.91308 15.0201 4.91907 14.9844 4.92466 14.9491H4.16667C3.2481 14.9491 2.5 14.201 2.5 13.2825V4.94914ZM5.83333 14.1158C6.66667 14.1158 6.66667 14.1162 6.66667 14.1162L6.66667 14.1176L6.66666 14.1201L6.66662 14.1272L6.66637 14.1499C6.66611 14.1686 6.6656 14.1944 6.66463 14.2267C6.66269 14.291 6.65891 14.3813 6.6515 14.4913C6.63675 14.71 6.60725 15.0128 6.54752 15.3483C6.51613 15.5246 6.47399 15.7249 6.41585 15.9355C6.58444 15.8601 6.75345 15.7747 6.9182 15.6781C7.60979 15.2728 8.15923 14.7127 8.35803 13.9144C8.45051 13.5431 8.784 13.2825 9.16667 13.2825H15.8333V4.94914H4.16667V13.2825H5.83333C6.29357 13.2825 6.66667 13.6559 6.66667 14.1162L5.83333 14.1158Z" fill="#6D6D6D"/>
<path d="M6.66667 9.94914C7.1269 9.94914 7.5 9.57604 7.5 9.1158C7.5 8.65557 7.1269 8.28247 6.66667 8.28247C6.20643 8.28247 5.83333 8.65557 5.83333 9.1158C5.83333 9.57604 6.20643 9.94914 6.66667 9.94914Z" fill="#6D6D6D"/>
<path d="M10 9.94914C10.4602 9.94914 10.8333 9.57604 10.8333 9.1158C10.8333 8.65557 10.4602 8.28247 10 8.28247C9.53976 8.28247 9.16667 8.65557 9.16667 9.1158C9.16667 9.57604 9.53976 9.94914 10 9.94914Z" fill="#6D6D6D"/>
<path d="M13.3333 9.94914C13.7936 9.94914 14.1667 9.57604 14.1667 9.1158C14.1667 8.65557 13.7936 8.28247 13.3333 8.28247C12.8731 8.28247 12.5 8.65557 12.5 9.1158C12.5 9.57604 12.8731 9.94914 13.3333 9.94914Z" fill="#6D6D6D"/>
</svg>
