<svg width="14" height="14" viewBox="0 0 14 14" fill="none" xmlns="http://www.w3.org/2000/svg">
<g id="error_outline">
<path id="Vector" d="M6.33398 8.99992H7.66732V10.3333H6.33398V8.99992ZM6.33398 3.66659H7.66732V7.66659H6.33398V3.66659ZM6.99398 0.333252C3.31398 0.333252 0.333984 3.31992 0.333984 6.99992C0.333984 10.6799 3.31398 13.6666 6.99398 13.6666C10.6807 13.6666 13.6673 10.6799 13.6673 6.99992C13.6673 3.31992 10.6807 0.333252 6.99398 0.333252ZM7.00065 12.3333C4.05398 12.3333 1.66732 9.94659 1.66732 6.99992C1.66732 4.05325 4.05398 1.66659 7.00065 1.66659C9.94732 1.66659 12.334 4.05325 12.334 6.99992C12.334 9.94659 9.94732 12.3333 7.00065 12.3333Z" fill="#D31510"/>
</g>
</svg>
