<svg width="22" height="16" viewBox="0 0 22 16" fill="none" xmlns="http://www.w3.org/2000/svg">
<path d="M10.9998 12.3398C12.2498 12.3398 13.3125 11.9025 14.1878 11.0278C15.0625 10.1525 15.4998 9.08984 15.4998 7.83984C15.4998 6.58984 15.0625 5.52718 14.1878 4.65184C13.3125 3.77718 12.2498 3.33984 10.9998 3.33984C9.7498 3.33984 8.68714 3.77718 7.8118 4.65184C6.93714 5.52718 6.4998 6.58984 6.4998 7.83984C6.4998 9.08984 6.93714 10.1525 7.8118 11.0278C8.68714 11.9025 9.7498 12.3398 10.9998 12.3398ZM10.9998 10.5398C10.2498 10.5398 9.61247 10.2772 9.0878 9.75184C8.56247 9.22718 8.2998 8.58984 8.2998 7.83984C8.2998 7.08984 8.56247 6.45218 9.0878 5.92684C9.61247 5.40218 10.2498 5.13984 10.9998 5.13984C11.7498 5.13984 12.3875 5.40218 12.9128 5.92684C13.4375 6.45218 13.6998 7.08984 13.6998 7.83984C13.6998 8.58984 13.4375 9.22718 12.9128 9.75184C12.3875 10.2772 11.7498 10.5398 10.9998 10.5398ZM10.9998 15.3398C8.68314 15.3398 6.56647 14.7275 4.64981 13.5028C2.73314 12.2775 1.28314 10.6232 0.299805 8.53984C0.249805 8.45651 0.216471 8.35218 0.199805 8.22684C0.183138 8.10218 0.174805 7.97318 0.174805 7.83984C0.174805 7.70651 0.183138 7.57718 0.199805 7.45184C0.216471 7.32718 0.249805 7.22318 0.299805 7.13984C1.28314 5.05651 2.73314 3.40251 4.64981 2.17784C6.56647 0.95251 8.68314 0.339844 10.9998 0.339844C13.3165 0.339844 15.4331 0.95251 17.3498 2.17784C19.2665 3.40251 20.7165 5.05651 21.6998 7.13984C21.7498 7.22318 21.7831 7.32718 21.7998 7.45184C21.8165 7.57718 21.8248 7.70651 21.8248 7.83984C21.8248 7.97318 21.8165 8.10218 21.7998 8.22684C21.7831 8.35218 21.7498 8.45651 21.6998 8.53984C20.7165 10.6232 19.2665 12.2775 17.3498 13.5028C15.4331 14.7275 13.3165 15.3398 10.9998 15.3398ZM10.9998 13.3398C12.8831 13.3398 14.6125 12.8438 16.1878 11.8518C17.7625 10.8605 18.9665 9.52318 19.7998 7.83984C18.9665 6.15651 17.7625 4.81884 16.1878 3.82684C14.6125 2.83551 12.8831 2.33984 10.9998 2.33984C9.11647 2.33984 7.38714 2.83551 5.8118 3.82684C4.23714 4.81884 3.03314 6.15651 2.1998 7.83984C3.03314 9.52318 4.23714 10.8605 5.8118 11.8518C7.38714 12.8438 9.11647 13.3398 10.9998 13.3398Z" fill="#6D6D6D"/>
</svg>
