<svg width="22" height="20" viewBox="0 0 22 20" fill="none" xmlns="http://www.w3.org/2000/svg">
<path d="M15.0998 10.6399L13.6498 9.18994C13.7998 8.40661 13.5748 7.67327 12.9748 6.98994C12.3748 6.30661 11.5998 6.03994 10.6498 6.18994L9.1998 4.73994C9.48314 4.60661 9.77047 4.50661 10.0618 4.43994C10.3538 4.37327 10.6665 4.33994 10.9998 4.33994C12.2498 4.33994 13.3125 4.77728 14.1878 5.65194C15.0625 6.52728 15.4998 7.58994 15.4998 8.83994C15.4998 9.17327 15.4665 9.48594 15.3998 9.77794C15.3331 10.0693 15.2331 10.3566 15.0998 10.6399ZM18.2998 13.7899L16.8498 12.3899C17.4831 11.9066 18.0458 11.3773 18.5378 10.8019C19.0291 10.2273 19.4498 9.57327 19.7998 8.83994C18.9665 7.15661 17.7705 5.81894 16.2118 4.82694C14.6538 3.83561 12.9165 3.33994 10.9998 3.33994C10.5165 3.33994 10.0415 3.37327 9.5748 3.43994C9.10814 3.50661 8.6498 3.60661 8.1998 3.73994L6.64981 2.18994C7.33314 1.90661 8.03314 1.69394 8.7498 1.55194C9.46647 1.41061 10.2165 1.33994 10.9998 1.33994C13.3831 1.33994 15.5248 1.96894 17.4248 3.22694C19.3248 4.48561 20.7498 6.12327 21.6998 8.13994C21.7498 8.22328 21.7831 8.32728 21.7998 8.45194C21.8165 8.57728 21.8248 8.70661 21.8248 8.83994C21.8248 8.97327 21.8125 9.10228 21.7878 9.22694C21.7625 9.35228 21.7331 9.45661 21.6998 9.53994C21.3165 10.3899 20.8375 11.1733 20.2628 11.8899C19.6875 12.6066 19.0331 13.2399 18.2998 13.7899ZM18.0998 19.2399L14.5998 15.7899C14.0165 15.9733 13.4291 16.1109 12.8378 16.2029C12.2458 16.2943 11.6331 16.3399 10.9998 16.3399C8.61647 16.3399 6.4748 15.7109 4.5748 14.4529C2.6748 13.1943 1.2498 11.5566 0.299805 9.53994C0.249805 9.45661 0.216471 9.35228 0.199805 9.22694C0.183138 9.10228 0.174805 8.97327 0.174805 8.83994C0.174805 8.70661 0.183138 8.58161 0.199805 8.46494C0.216471 8.34827 0.249805 8.24827 0.299805 8.16494C0.649805 7.41494 1.06647 6.72327 1.5498 6.08994C2.03314 5.45661 2.56647 4.87327 3.1498 4.33994L1.0748 2.23994C0.891471 2.05661 0.799805 1.82727 0.799805 1.55194C0.799805 1.27727 0.899805 1.03994 1.0998 0.839942C1.28314 0.656608 1.51647 0.564941 1.7998 0.564941C2.08314 0.564941 2.31647 0.656608 2.4998 0.839942L19.4998 17.8399C19.6831 18.0233 19.7791 18.2526 19.7878 18.5279C19.7958 18.8026 19.6998 19.0399 19.4998 19.2399C19.3165 19.4233 19.0831 19.5149 18.7998 19.5149C18.5165 19.5149 18.2831 19.4233 18.0998 19.2399ZM4.5498 5.73994C4.06647 6.17327 3.6248 6.64827 3.2248 7.16494C2.8248 7.68161 2.48314 8.23994 2.1998 8.83994C3.03314 10.5233 4.22881 11.8606 5.78681 12.8519C7.34547 13.8439 9.08314 14.3399 10.9998 14.3399C11.3331 14.3399 11.6581 14.3193 11.9748 14.2779C12.2915 14.2359 12.6165 14.1899 12.9498 14.1399L12.0498 13.1899C11.8665 13.2399 11.6915 13.2773 11.5248 13.3019C11.3581 13.3273 11.1831 13.3399 10.9998 13.3399C9.7498 13.3399 8.68714 12.9026 7.8118 12.0279C6.93714 11.1526 6.4998 10.0899 6.4998 8.83994C6.4998 8.65661 6.51214 8.48161 6.53681 8.31494C6.56214 8.14828 6.5998 7.97327 6.64981 7.78994L4.5498 5.73994Z" fill="#6D6D6D"/>
</svg>
