<svg width="20" height="21" viewBox="0 0 20 21" fill="none" xmlns="http://www.w3.org/2000/svg">
<path fill-rule="evenodd" clip-rule="evenodd" d="M17.7913 4.48776H19.0722C19.5846 4.48776 20 4.90317 20 5.4156C20 5.92803 19.5846 6.34343 19.0722 6.34343H17.7913C17.4333 7.16267 16.6159 7.73518 15.6647 7.73518C14.7135 7.73518 13.8961 7.16267 13.5381 6.34343H0.927835C0.415406 6.34343 0 5.92803 0 5.4156C0 4.90317 0.415406 4.48776 0.927835 4.48776H13.5381C13.8961 3.66853 14.7135 3.09601 15.6647 3.09601C16.6159 3.09601 17.4333 3.66853 17.7913 4.48776ZM0.927835 14.9964C0.415406 14.9964 0 15.4118 0 15.9243C0 16.4367 0.415406 16.8521 0.927835 16.8521H13.5381C13.8961 17.6713 14.7135 18.2438 15.6647 18.2438C16.6159 18.2438 17.4333 17.6713 17.7913 16.8521H19.0722C19.5846 16.8521 20 16.4367 20 15.9243C20 15.4118 19.5846 14.9964 19.0722 14.9964H17.7913C17.4333 14.1772 16.6159 13.6047 15.6647 13.6047C14.7135 13.6047 13.8961 14.1772 13.5381 14.9964H0.927835ZM0 10.6699C0 10.1575 0.415406 9.74209 0.927835 9.74209H3.05339C3.41133 8.92286 4.22879 8.35034 5.17997 8.35034C6.13115 8.35034 6.94861 8.92286 7.30655 9.74209H19.0722C19.5846 9.74209 20 10.1575 20 10.6699C20 11.1824 19.5846 11.5978 19.0722 11.5978H7.30655C6.94861 12.417 6.13115 12.9895 5.17997 12.9895C4.22879 12.9895 3.41133 12.417 3.05339 11.5978H0.927835C0.415406 11.5978 0 11.1824 0 10.6699Z" fill="#222222"/>
</svg>
