<svg width="19" height="19" viewBox="0 0 19 19" fill="none" xmlns="http://www.w3.org/2000/svg">
<g id="Frame 26086170">
<g id="Group 26086154">
<g id="Group 26086153">
<path id="Vector (Stroke)" fill-rule="evenodd" clip-rule="evenodd" d="M9.81111 2.91992C9.80497 2.91593 9.80024 2.91414 9.79728 2.91333L2.80356 8.12865C2.80179 8.13008 2.80059 8.13126 2.7998 8.13212V16.4914C2.7998 16.5782 2.82701 16.6347 2.84651 16.6614H5.7998V12.6614C5.7998 11.5592 6.69752 10.6614 7.7998 10.6614H11.7998C12.9021 10.6614 13.7998 11.5592 13.7998 12.6614V16.6614H16.7501C16.7723 16.6322 16.7998 16.5738 16.7998 16.4914V8.16212C16.799 8.1612 16.7976 8.15991 16.7957 8.15834L9.81111 2.91992ZM16.7998 18.6614C18.0454 18.6614 18.7998 17.5286 18.7998 16.4914V8.16144C18.7998 7.51881 18.4955 6.93817 18.0049 6.56528L10.9926 1.30604L10.9853 1.30076C10.2911 0.799385 9.33075 0.764107 8.60107 1.3105C8.60065 1.31081 8.60023 1.31113 8.5998 1.31144L1.60201 6.5298L1.59472 6.53528C1.10408 6.90817 0.799805 7.48881 0.799805 8.13144V16.4914C0.799805 17.5445 1.5593 18.6614 2.7998 18.6614H16.7998ZM11.7998 16.6614V12.6614H7.7998V16.6614H11.7998Z" fill="#6D6D6D"/>
<path id="Vector (Stroke)_2" fill-rule="evenodd" clip-rule="evenodd" d="M9.81111 2.91992C9.80497 2.91593 9.80024 2.91414 9.79728 2.91333L2.80356 8.12865C2.80179 8.13008 2.7998 8.13212 2.7998 8.13212V16.4914C2.7998 16.5782 2.82701 16.6347 2.84651 16.6614H5.7998V12.6614C5.7998 11.5592 6.69752 10.6614 7.7998 10.6614H11.7998C12.9021 10.6614 13.7998 11.5592 13.7998 12.6614V16.6614H16.7501C16.7723 16.6322 16.7998 16.5738 16.7998 16.4914V8.16212C16.7998 8.16212 16.7976 8.15991 16.7957 8.15834L9.81111 2.91992Z" fill="#222222" fill-opacity="0.2"/>
</g>
</g>
</g>
</svg>
