<svg width="20" height="21" viewBox="0 0 20 21" fill="none" xmlns="http://www.w3.org/2000/svg">
<path fill-rule="evenodd" clip-rule="evenodd" d="M6.98776 5.34074C5.45847 5.34074 4.16449 6.63934 4.17109 8.29575L4.1711 8.29907C4.17109 8.87356 4.325 9.39647 4.59223 9.83833L4.97445 10.3454L10.0003 15.9922L15.0261 10.3454L15.4083 9.83833C15.6755 9.39647 15.8294 8.87357 15.8294 8.29907C15.8294 6.63949 14.5332 5.34074 13.0044 5.34074C12.0496 5.34074 11.202 5.82915 10.6886 6.59601L9.99609 7.63033L9.30362 6.59601C8.79022 5.82915 7.94262 5.34074 6.98776 5.34074ZM2.50443 8.30073C2.49524 5.77455 4.48426 3.67407 6.98776 3.67407C8.15022 3.67407 9.20358 4.124 9.99609 4.85777C10.7886 4.124 11.842 3.67407 13.0044 3.67407C15.509 3.67407 17.4961 5.77532 17.4961 8.29907C17.4961 9.18929 17.2527 10.0201 16.8182 10.7275C16.7902 10.7787 16.7526 10.8349 16.7027 10.89L16.3161 11.4028L11.2294 17.118C10.5699 17.8434 9.42573 17.8556 8.76489 17.111C8.76464 17.1107 8.76439 17.1104 8.76414 17.1102L3.6844 11.4028L3.29069 10.8805L3.25716 10.847L3.20723 10.7675C2.75742 10.052 2.50473 9.20718 2.50443 8.30073Z" fill="#6D6D6D"/>
</svg>
