<svg width="21" height="21" viewBox="0 0 21 21" fill="none" xmlns="http://www.w3.org/2000/svg">
<g id="icon" clip-path="url(#clip0_7053_9869)">
<g id="Vector">
<path d="M15.5996 12.8099V7.9699H18.8096C19.2496 7.9699 19.5996 8.3199 19.5996 8.7499V15.8199C19.5996 16.2499 19.2496 16.6099 18.8096 16.6099H18.0296C18.0296 16.6099 18.0296 18.4599 18.8296 19.2699C18.9396 19.3799 18.8496 19.5599 18.6896 19.5299C17.6996 19.3199 15.3996 18.6599 14.8896 16.6099H9.38961C8.94961 16.6099 8.59961 16.2499 8.59961 15.8199V12.8099H15.5996Z" fill="#222222" fill-opacity="0.2"/>
<path fillRule="evenodd" clipRule="evenodd" d="M0.599609 2.80988C0.599609 1.70759 1.49732 0.809875 2.59961 0.809875H14.5996C15.7019 0.809875 16.5996 1.70759 16.5996 2.80988V6.96988H18.8096C19.7936 6.96988 20.5996 7.7593 20.5996 8.74988V15.8199C20.5996 16.6849 19.9769 17.4252 19.1368 17.5801C19.2326 18.0509 19.381 18.4041 19.54 18.5661C20.3282 19.3599 19.6465 20.7267 18.5053 20.5127L18.4821 20.5081C17.9445 20.3941 17.0012 20.1492 16.1035 19.6223C15.378 19.1966 14.6315 18.5544 14.188 17.6099H9.38961C8.38911 17.6099 7.59961 16.7939 7.59961 15.8199V14.9922C7.10734 15.5988 6.50784 16.0613 5.91277 16.4101C4.8051 17.0593 3.63432 17.3641 2.95756 17.508L2.94574 17.5105C1.71826 17.756 1.05969 16.2766 1.87596 15.4792C2.1547 15.1918 2.36699 14.6159 2.48759 13.9384C2.49543 13.8943 2.50272 13.8508 2.50952 13.8079C1.44883 13.7606 0.599609 12.882 0.599609 11.8099V2.80988ZM3.59961 12.8099C4.59961 12.8099 4.59961 12.8103 4.59961 12.8103L4.59961 12.812L4.5996 12.815L4.59955 12.8236L4.59926 12.8508C4.59894 12.8732 4.59833 12.9042 4.59717 12.9429C4.59484 13.0202 4.5903 13.1285 4.58141 13.2604C4.56371 13.5229 4.52831 13.8862 4.45663 14.2889C4.41897 14.5005 4.3684 14.7408 4.29862 14.9936C4.50093 14.903 4.70375 14.8005 4.90145 14.6846C5.73135 14.1982 6.39069 13.5261 6.62925 12.5682C6.74022 12.1226 7.14041 11.8099 7.59961 11.8099H14.5996V2.80988H2.59961V11.8099H3.59961C4.15189 11.8099 4.59961 12.258 4.59961 12.8103L3.59961 12.8099ZM16.5996 8.96988V11.8099C16.5996 12.9122 15.7019 13.8099 14.5996 13.8099H9.59961V15.6099H14.8896C15.3489 15.6099 15.7491 15.9227 15.86 16.3685C16.0287 17.0466 16.4959 17.5336 17.1158 17.8974C17.1326 17.9073 17.1496 17.9171 17.1665 17.9267C17.1588 17.8869 17.1516 17.8482 17.145 17.8108C17.0871 17.4845 17.0586 17.1907 17.0444 16.9786C17.0372 16.8719 17.0335 16.784 17.0316 16.7209C17.0307 16.6893 17.0302 16.6638 17.0299 16.6451L17.0297 16.6221L17.0296 16.6146L17.0296 16.6108C17.0296 16.6108 17.0296 16.6099 18.0296 16.6099L17.0296 16.6108C17.0296 16.0585 17.4773 15.6099 18.0296 15.6099H18.5996V8.96988H16.5996Z" fill="#6D6D6D"/>
<path d="M5.59961 7.55989C6.01382 7.55989 6.34961 7.2241 6.34961 6.80989C6.34961 6.39568 6.01382 6.05989 5.59961 6.05989C5.1854 6.05989 4.84961 6.39568 4.84961 6.80989C4.84961 7.2241 5.1854 7.55989 5.59961 7.55989Z" fill="#6D6D6D"/>
<path d="M8.59961 7.55989C9.01382 7.55989 9.34961 7.2241 9.34961 6.80989C9.34961 6.39568 9.01382 6.05989 8.59961 6.05989C8.1854 6.05989 7.84961 6.39568 7.84961 6.80989C7.84961 7.2241 8.1854 7.55989 8.59961 7.55989Z" fill="#6D6D6D"/>
<path d="M11.5996 7.55989C12.0138 7.55989 12.3496 7.2241 12.3496 6.80989C12.3496 6.39568 12.0138 6.05989 11.5996 6.05989C11.1854 6.05989 10.8496 6.39568 10.8496 6.80989C10.8496 7.2241 11.1854 7.55989 11.5996 7.55989Z" fill="#6D6D6D"/>
</g>
</g>
<defs>
<clipPath id="clip0_7053_9869">
<rect width="20" height="19.72" fill="white" transform="translate(0.599609 0.809937)"/>
</clipPath>
</defs>
</svg>
