<svg width="21" height="21" viewBox="0 0 21 21" fill="none" xmlns="http://www.w3.org/2000/svg">
<g id="Frame" clip-path="url(#clip0_7053_9876)">
<g id="Vector">
<path d="M3.97971 17.4127C5.58971 15.8627 7.78971 14.9127 10.1997 14.9127C12.6097 14.9127 14.8097 15.8627 16.4197 17.4127C16.4197 17.4127 15.1997 19.9127 10.1997 19.9127C10.1997 19.9127 5.75971 19.9127 3.97971 17.4127Z" fill="#222222" fill-opacity="0.2"/>
<path fillRule="evenodd" clipRule="evenodd" d="M10.1997 2.91266C5.78143 2.91266 2.19971 6.49438 2.19971 10.9127C2.19971 12.8585 2.89445 14.6422 4.04942 16.029C5.7441 14.7017 7.88585 13.9127 10.1997 13.9127C12.5136 13.9127 14.6553 14.7017 16.35 16.029C17.505 14.6422 18.1997 12.8585 18.1997 10.9127C18.1997 6.49438 14.618 2.91266 10.1997 2.91266ZM14.8636 17.4132C13.5529 16.4684 11.9388 15.9127 10.1997 15.9127C8.46066 15.9127 6.84648 16.4684 5.53579 17.4132C6.84878 18.3569 8.45934 18.9127 10.1997 18.9127C11.9401 18.9127 13.5506 18.3569 14.8636 17.4132ZM0.199707 10.9127C0.199707 5.38981 4.67686 0.912659 10.1997 0.912659C15.7226 0.912659 20.1997 5.38981 20.1997 10.9127C20.1997 16.4355 15.7226 20.9127 10.1997 20.9127C4.67686 20.9127 0.199707 16.4355 0.199707 10.9127ZM10.1997 6.91266C9.09514 6.91266 8.19971 7.80809 8.19971 8.91266C8.19971 10.0172 9.09514 10.9127 10.1997 10.9127C11.3043 10.9127 12.1997 10.0172 12.1997 8.91266C12.1997 7.80809 11.3043 6.91266 10.1997 6.91266ZM6.19971 8.91266C6.19971 6.70352 7.99057 4.91266 10.1997 4.91266C12.4088 4.91266 14.1997 6.70352 14.1997 8.91266C14.1997 11.1218 12.4088 12.9127 10.1997 12.9127C7.99057 12.9127 6.19971 11.1218 6.19971 8.91266Z" fill="#6D6D6D"/>
</g>
</g>
<defs>
<clipPath id="clip0_7053_9876">
<rect width="20" height="20" fill="white" transform="translate(0.199707 0.912659)"/>
</clipPath>
</defs>
</svg>
